<?xml version="1.0" encoding="iso-8859-1"?>
<!-- Uploaded to: SVG Repo, www.svgrepo.com, Generator: SVG Repo Mixer Tools -->
<!DOCTYPE svg PUBLIC "-//W3C//DTD SVG 1.1//EN" "http://www.w3.org/Graphics/SVG/1.1/DTD/svg11.dtd">
<svg fill="#000000" height="800px" width="800px" version="1.1" id="Capa_1" xmlns="http://www.w3.org/2000/svg" xmlns:xlink="http://www.w3.org/1999/xlink"
	 viewBox="0 0 494.941 494.941" xml:space="preserve">
<g id="XMLID_206_">
	<path id="XMLID_208_" d="M356.93,138.964H178.637l-7.211-13.876c-6.624-14.868-21.38-24.438-37.657-24.438H41.242
		C18.469,100.649,0,119.12,0,141.909v268.883c0,20.117,16.299,36.426,36.418,36.426h325.353c20.108,0,36.41-16.309,36.41-36.426
		V180.206C398.181,157.417,379.719,138.964,356.93,138.964z M356.753,211.573H41.434V142.1h92.216
		c0.311,0.705,0.647,1.375,1.008,2.082l7.209,13.857c7.114,13.748,21.301,22.357,36.77,22.357h178.116V211.573z"/>
	<path id="XMLID_207_" d="M422.763,47.723H213.046c-13.579,0-24.583,11.012-24.583,24.584c0,13.572,11.003,24.58,24.583,24.58
		h209.717c12.691,0,23.014,10.324,23.014,23.014v201.381c0,13.57,11.003,24.582,24.582,24.582c13.579,0,24.582-11.012,24.582-24.582
		V119.901C494.941,80.1,462.565,47.723,422.763,47.723z"/>
</g>
</svg>
